<svg xmlns="http://www.w3.org/2000/svg" xmlns:xlink="http://www.w3.org/1999/xlink" width="512" height="512" viewBox="0 0 512 512">
  <defs>
    <clipPath id="clip-foreground">
      <rect width="512" height="512"/>
    </clipPath>
  </defs>
  <g id="foreground" clip-path="url(#clip-foreground)">
    <rect width="512" height="512" fill="rgba(204,0,0,0)"/>
    <path id="album_FILL0_wght400_GRAD0_opsz24" d="M263.013-614.631q34.315,0,58.336-24.02t24.02-58.336q0-34.315-24.02-58.336t-58.336-24.021q-34.315,0-58.336,24.021t-24.02,58.336q0,34.315,24.02,58.336T263.013-614.631Zm0-64.055a17.708,17.708,0,0,1-13.04-5.262,17.708,17.708,0,0,1-5.262-13.04,17.708,17.708,0,0,1,5.262-13.04,17.708,17.708,0,0,1,13.04-5.262,17.708,17.708,0,0,1,13.04,5.262,17.708,17.708,0,0,1,5.262,13.04,17.708,17.708,0,0,1-5.262,13.04A17.708,17.708,0,0,1,263.013-678.685Zm0,164.712a178.21,178.21,0,0,1-71.375-14.412A184.818,184.818,0,0,1,133.531-567.5a184.817,184.817,0,0,1-39.119-58.107A178.21,178.21,0,0,1,80-696.987a178.21,178.21,0,0,1,14.412-71.375,184.817,184.817,0,0,1,39.119-58.107,184.817,184.817,0,0,1,58.107-39.119A178.21,178.21,0,0,1,263.013-880a178.21,178.21,0,0,1,71.375,14.412A184.817,184.817,0,0,1,392.5-826.469a184.816,184.816,0,0,1,39.119,58.107,178.21,178.21,0,0,1,14.412,71.375,178.21,178.21,0,0,1-14.412,71.375A184.815,184.815,0,0,1,392.5-567.5a184.817,184.817,0,0,1-58.107,39.119A178.21,178.21,0,0,1,263.013-513.973Zm0-36.6q61.309,0,103.86-42.551t42.551-103.86q0-61.309-42.551-103.86T263.013-843.4q-61.31,0-103.86,42.551T116.6-696.987q0,61.309,42.551,103.86T263.013-550.576ZM263.013-696.987Z" transform="translate(-7.013 952.987)" fill="#f3f3f3"/>
  </g>
</svg>
